<?xml version="1.0" encoding="UTF-8" standalone="no" ?>
<!DOCTYPE svg PUBLIC "-//W3C//DTD SVG 1.1//EN" "http://www.w3.org/Graphics/SVG/1.1/DTD/svg11.dtd">
<svg xmlns="http://www.w3.org/2000/svg" xmlns:xlink="http://www.w3.org/1999/xlink" version="1.1" width="54" height="54" viewBox="0 0 54 54" xml:space="preserve">
<desc>Created with Fabric.js 3.6.3</desc>
<defs>
</defs>
<g transform="matrix(1 0 0 -1 27 27)"  >
<g style=""   >
		<g transform="matrix(1 0 0 1 0 3.5)" id="Capa_1"  >
<path style="stroke: none; stroke-width: 1; stroke-dasharray: none; stroke-linecap: butt; stroke-dashoffset: 0; stroke-linejoin: miter; stroke-miterlimit: 4; fill: rgb(0,0,0); fill-rule: nonzero; opacity: 1;"  transform=" translate(-27, -30.5)" d="M 27.707 7.293 c -0.092 -0.092 -0.203 -0.165 -0.325 -0.216 c -0.245 -0.101 -0.52 -0.101 -0.764 0 c -0.122 0.051 -0.233 0.124 -0.325 0.216 l -16 16 c -0.391 0.391 -0.391 1.023 0 1.414 C 10.488 24.902 10.744 25 11 25 s 0.512 -0.098 0.707 -0.293 L 26 10.414 V 53 c 0 0.552 0.448 1 1 1 s 1 -0.448 1 -1 V 10.414 l 14.293 14.293 C 42.488 24.902 42.744 25 43 25 s 0.512 -0.098 0.707 -0.293 c 0.391 -0.391 0.391 -1.023 0 -1.414 L 27.707 7.293 z" stroke-linecap="round" />
</g>
		<g transform="matrix(1 0 0 1 0 -26)" id="Capa_1"  >
<path style="stroke: none; stroke-width: 1; stroke-dasharray: none; stroke-linecap: butt; stroke-dashoffset: 0; stroke-linejoin: miter; stroke-miterlimit: 4; fill: rgb(0,0,0); fill-rule: nonzero; opacity: 1;"  transform=" translate(-27, -1)" d="M 11 2 h 32 c 0.552 0 1 -0.448 1 -1 s -0.448 -1 -1 -1 H 11 c -0.552 0 -1 0.448 -1 1 S 10.448 2 11 2 z" stroke-linecap="round" />
</g>
</g>
</g>
</svg>